<?xml version="1.0" encoding="UTF-8"?><svg id="Layer_1" xmlns="http://www.w3.org/2000/svg" viewBox="0 0 549 153"><defs><style>.cls-1{fill:#fff;}.cls-1,.cls-2{stroke:#fff;stroke-linecap:round;stroke-linejoin:round;stroke-width:2px;}.cls-2{fill:none;}</style></defs><g><path class="cls-2" d="M103.5,92.88c2.79-3.17,4.5-7.32,4.5-11.88s-1.71-8.71-4.5-11.88c-2.79,3.17-4.5,7.32-4.5,11.88s1.71,8.71,4.5,11.88Z"/><path class="cls-2" d="M72,81c0,8.38,5.73,15.4,13.49,17.41-2.86-5.16-4.49-11.09-4.49-17.41s1.63-12.25,4.49-17.41c-7.75,2.01-13.49,9.03-13.49,17.41Z"/><path class="cls-1" d="M117,45c-4.78,0-9.33,.94-13.5,2.63,7.46,3.02,13.68,8.47,17.67,15.37h22.83v-18h-27Z"/><path class="cls-1" d="M121.17,63c-3.99-6.9-10.21-12.35-17.67-15.37-4.17-1.69-8.72-2.63-13.5-2.63-19.88,0-36,16.12-36,36s16.12,36,36,36c4.78,0,9.33-.94,13.5-2.63-7.68-3.11-14.04-8.78-18.01-15.97-7.75-2.01-13.49-9.03-13.49-17.41s5.73-15.4,13.49-17.41c1.44-.37,2.95-.59,4.51-.59,5.38,0,10.2,2.38,13.5,6.12,2.79,3.17,4.5,7.32,4.5,11.88s-1.71,8.71-4.5,11.88c3.3,3.75,8.12,6.12,13.5,6.12h4.17c3.07-5.3,4.83-11.44,4.83-18s-1.76-12.7-4.83-18Z"/><path class="cls-1" d="M121.17,99h-4.17c-5.38,0-10.2-2.38-13.5-6.12-2.79-3.17-4.5-7.32-4.5-11.88s1.71-8.71,4.5-11.88c-3.3-3.75-8.12-6.12-13.5-6.12-1.56,0-3.07,.22-4.51,.59-2.86,5.16-4.49,11.09-4.49,17.41s1.63,12.25,4.49,17.41c3.98,7.18,10.34,12.86,18.01,15.97,4.17,1.69,8.72,2.63,13.5,2.63h27v-18h-22.83Z"/></g><path class="cls-1" d="M171,81c19.88,0,36-16.12,36-36h-18c0,9.94-8.06,18-18,18V9h-18V117h18v-18c9.94,0,18,8.06,18,18h18c0-19.88-16.12-36-36-36Z"/><path class="cls-1" d="M261,45v4.83c-5.3-3.07-11.44-4.83-18-4.83-19.88,0-36,16.12-36,36s16.12,36,36,36c6.56,0,12.7-1.76,18-4.83v4.83h18V45h-18Zm-18,54c-9.94,0-18-8.06-18-18s8.06-18,18-18,18,8.06,18,18-8.06,18-18,18Z"/><path class="cls-1" d="M360,45v45c0,4.97-4.03,9-9,9s-9-4.03-9-9V45h-18v45c0,4.97-4.03,9-9,9s-9-4.03-9-9V45h-18v45c0,14.91,12.09,27,27,27,6.92,0,13.22-2.6,18-6.88,4.78,4.28,11.08,6.88,18,6.88,14.91,0,27-12.09,27-27V45h-18Z"/><path class="cls-1" d="M441,45v4.83c-5.3-3.07-11.44-4.83-18-4.83-19.88,0-36,16.12-36,36s16.12,36,36,36c6.56,0,12.7-1.76,18-4.83v4.83h18V45h-18Zm-18,54c-9.94,0-18-8.06-18-18s8.06-18,18-18,18,8.06,18,18-8.06,18-18,18Z"/><path class="cls-1" d="M54,45h-9.39c-6.41,0-12.42,1.7-17.61,4.66v-4.66H9V117H27v-36.69c0-9.56,7.75-17.31,17.31-17.31h9.69v-18Z"/><path class="cls-1" d="M531,36c-4.97,0-9,4.03-9,9v36c0-4.97-4.03-9-9-9s-9,4.03-9,9c0-4.97-4.03-9-9-9s-9,4.03-9,9V45c0-4.97-4.03-9-9-9s-9,4.03-9,9v36c0,19.88,16.12,36,36,36,6.56,0,12.7-1.76,18-4.83v4.83c0,4.97-4.03,9-9,9H9v18h504c14.91,0,27-12.09,27-27V45c0-4.97-4.03-9-9-9Z"/></svg>